<svg viewBox="0 0 100 100" fill="none" xmlns="http://www.w3.org/2000/svg">
<path fill-rule="evenodd" clip-rule="evenodd" d="M12 18C12 14.6863 14.6863 12 18 12H68C71.3137 12 74 14.6863 74 18V26H82C85.3137 26 88 28.6863 88 32V82C88 85.3137 85.3137 88 82 88H32C28.6863 88 26 85.3137 26 82V74H18C14.6863 74 12 71.3137 12 68V18ZM18 16H68C69.1046 16 70 16.8954 70 18V68C70 69.1046 69.1046 70 68 70H18C16.8954 70 16 69.1046 16 68V18C16 16.8954 16.8954 16 18 16ZM30 74V82C30 83.1046 30.8954 84 32 84H82C83.1046 84 84 83.1046 84 82V32C84 30.8954 83.1046 30 82 30H74V68C74 71.3137 71.3137 74 68 74H30Z" fill="current"/>
</svg>