<svg viewBox="0 0 100 100" fill="none" xmlns="http://www.w3.org/2000/svg">
<path fill-rule="evenodd" clip-rule="evenodd" d="M52 19.0635V11H48V19.0635C40.9016 19.5155 34.4525 22.3565 29.4482 26.7913L23.6741 21.0173L20.8457 23.8457L26.6308 29.6308C22.288 34.609 19.51 40.9876 19.0635 48H11V52H19.0635C19.5155 59.0984 22.3565 65.5475 26.7913 70.5518L21.0172 76.3259L23.8457 79.1543L29.6308 73.3692C34.609 77.712 40.9876 80.49 48 80.9365V89H52V80.9365C59.0124 80.49 65.391 77.712 70.3692 73.3692L76 79L78.8284 76.1716L73.2087 70.5518C77.6435 65.5475 80.4845 59.0984 80.9365 52H89V48H80.9365C80.49 40.9876 77.712 34.609 73.3692 29.6308L79 24L76.1716 21.1716L70.5518 26.7913C65.5475 22.3565 59.0984 19.5155 52 19.0635ZM77 50C77 64.9117 64.9117 77 50 77C35.0883 77 23 64.9117 23 50C23 35.0883 35.0883 23 50 23C64.9117 23 77 35.0883 77 50Z" fill="current"/>
</svg>