<svg width="100" height="100" viewBox="0 0 100 100" fill="none" xmlns="http://www.w3.org/2000/svg">
<path fill-rule="evenodd" clip-rule="evenodd" d="M80.1422 68.9486C79.0155 69.0393 77.8766 69.0855 76.7272 69.0855C53.8969 69.0855 35.2788 50.8571 35.2788 28.236C35.2788 25.8315 35.49 23.4738 35.8954 21.1808C26.3374 26.9782 20 37.3581 20 49.1506C20 67.2323 34.9143 82 53.4485 82C64.365 82 74.042 76.8682 80.1422 68.9486ZM82.99 64.5724C80.9535 64.9098 78.8612 65.0855 76.7272 65.0855C56.045 65.0855 39.2788 48.5874 39.2788 28.236C39.2788 24.9924 39.7047 21.8467 40.5045 18.85C40.949 17.1844 41.5091 15.5648 42.1757 14C40.4564 14.5334 38.7907 15.1855 37.1884 15.9466C24.6502 21.9026 16 34.5326 16 49.1506C16 69.502 32.7662 86 53.4485 86C67.0628 86 78.9804 78.8512 85.5357 68.1603C86.4695 66.6375 87.2944 65.0428 88 63.3866C86.375 63.8907 84.7023 64.2888 82.99 64.5724Z" fill="current"/>
</svg>
