<svg width="100" height="100" viewBox="0 0 100 100" fill="none" xmlns="http://www.w3.org/2000/svg">
<path fill-rule="evenodd" clip-rule="evenodd" d="M50.0331 10C27.8958 10 10 28.1041 10 50.5013C10 68.4046 21.4665 83.5594 37.3735 88.9231C39.3623 89.3264 40.0908 88.0517 40.0908 86.9794C40.0908 86.0405 40.0252 82.8221 40.0252 79.4687C28.889 81.8831 26.57 74.6407 26.57 74.6407C24.7803 69.9468 22.1286 68.7404 22.1286 68.7404C18.4837 66.2593 22.3941 66.2593 22.3941 66.2593C26.4372 66.5276 28.5588 70.4166 28.5588 70.4166C32.1373 76.5852 37.9037 74.8423 40.2235 73.7692C40.5546 71.154 41.6158 69.3436 42.7425 68.338C33.8606 67.399 24.5156 63.9123 24.5156 48.3552C24.5156 43.9295 26.1053 40.3087 28.6243 37.4927C28.2269 36.4871 26.8347 32.3289 29.0226 26.7636C29.0226 26.7636 32.4028 25.6905 40.0244 30.9209C43.2875 30.0344 46.6527 29.5834 50.0331 29.5796C53.4133 29.5796 56.8591 30.0495 60.041 30.9209C67.6634 25.6905 71.0436 26.7636 71.0436 26.7636C73.2315 32.3289 71.8385 36.4871 71.4411 37.4927C74.0264 40.3087 75.5506 43.9295 75.5506 48.3552C75.5506 63.9123 66.2056 67.3315 57.2573 68.338C58.7159 69.6118 59.9746 72.0254 59.9746 75.8479C59.9746 81.2791 59.909 85.6381 59.909 86.9786C59.909 88.0517 60.6383 89.3264 62.6263 88.924C78.5333 83.5586 89.9998 68.4046 89.9998 50.5013C90.0654 28.1041 72.104 10 50.0331 10Z" fill="#000"/>
</svg>